<?xml version="1.0" encoding="UTF-8"?>
<svg width="500" height="300" version="1.1" viewBox="0 0 132.29 79.375" xmlns="http://www.w3.org/2000/svg">
 <path d="m-0.04276 58.781v-19.657m0.70978 19.652-0.41945-19.658m1.13 19.637-0.84075-19.648m1.5519 19.61-1.2639-19.627m1.9753 19.573-1.6889-19.595m2.4003 19.525-2.1158-19.552m2.8268 19.465-2.5445-19.498m3.255 19.395-2.9751-19.433m3.6847 19.314-3.4075-19.357m4.116 19.222-3.8418-19.271m4.5489 19.119-4.278-19.173m4.9834 19.005-4.716-19.065m5.4194 18.88-5.1559-18.946m5.857 18.744-5.5976-18.816m6.2962 18.597-6.0411-18.675m6.737 18.439-6.4866-18.523m7.1793 18.271-6.9338-18.36m7.6232 18.091-7.383-18.186m8.0688 17.9-7.834-18.001m8.5158 17.699-8.2868-17.806m8.9645 17.486-8.7415-17.599m9.3962 17.26-9.1611-17.376m9.7853 17.028-9.5312-17.155m10.138 16.804-9.8781-16.947m10.469 16.594-10.202-16.751m10.776 16.396-10.503-16.568m11.061 16.212-10.78-16.397m11.323 16.041-11.035-16.239m11.562 15.883-11.266-16.094m11.778 15.738-11.475-15.961m11.972 15.606-11.66-15.84m12.142 15.488-11.822-15.732m12.29 15.382-11.961-15.637m12.415 15.29-12.077-15.554m12.518 15.211-12.169-15.484m12.597 15.145-12.239-15.427m12.654 15.092-12.286-15.382m12.688 15.053-12.309-15.349m12.7 15.026-12.31-15.329m12.687 15.034-12.285-15.364m12.653 15.078-12.238-15.416m12.598 15.136-12.172-15.478m12.522 15.205-12.084-15.55m12.426 15.285-11.975-15.633m12.31 15.376-11.846-15.726m12.173 15.478-11.696-15.828m12.015 15.59-11.526-15.942m11.837 15.712-11.335-16.065m11.639 15.846-11.122-16.198m11.42 15.99-10.89-16.342m11.181 16.145-10.636-16.496m10.921 16.31-10.362-16.66m10.64 16.487-10.067-16.834m10.34 16.674-9.7511-17.018m10.018 16.871-9.4147-17.212m9.6765 17.08-9.0575-17.417m9.3143 17.299-8.6796-17.632m8.9179 17.514-8.2542-17.827m8.4949 17.713-7.8241-18.008m8.071 17.9-7.3974-18.179m7.6503 18.077-6.9741-18.341m7.2327 18.245-6.5543-18.494m6.8184 18.404-6.1379-18.637m6.4072 18.553-5.7249-18.771m5.9992 18.693-5.3153-18.896m5.5943 18.823-4.9091-19.011m5.1927 18.944-4.5063-19.117m4.7942 19.055-4.107-19.213m4.3989 19.157-3.711-19.3m4.0067 19.25-3.3185-19.378m3.6178 19.333-2.9294-19.446m3.232 19.406-2.5437-19.505m2.8494 19.47-2.1615-19.555m2.47 19.525-1.7826-19.595m2.0937 19.57-1.4071-19.626m1.7206 19.605-1.0351-19.647m1.3507 19.632-0.6665-19.659m0.98403 19.648-0.3013-19.662m0.61982 19.658 0.06184-19.659m0.25218 19.669 0.43417-19.666m-0.12344 19.68 0.81315-19.662m-0.506 19.68 1.1988-19.646m-0.8955 19.668 1.5911-19.619m-1.2919 19.646 1.99-19.581m-1.6953 19.612 2.3956-19.531m-2.1057 19.566 2.8078-19.47m-2.5229 19.51 3.2267-19.397m-2.9471 19.443 3.6523-19.313m-3.3783 19.364 4.0845-19.218m-3.8164 19.274 4.5233-19.111m-4.2614 19.173 4.9688-18.993m-4.7134 19.06 5.421-18.863m-5.1723 18.937 5.8798-18.723m-5.6381 18.802 6.3452-18.57m-6.1109 18.656 6.8173-18.407m-6.5907 18.499 7.2961-18.232m-7.0774 18.33 7.7815-18.045m-7.5654 18.141 8.2621-17.828m-8.0444 17.928 8.7279-17.595m-8.5099 17.705 9.1811-17.359m-8.9629 17.478 9.6217-17.118m-9.4033 17.245 10.05-16.872m-9.8312 17.008 10.465-16.623m-10.247 16.767 10.867-16.368m-10.649 16.52 11.257-16.109m-11.04 16.269 11.635-15.846m-11.417 16.013 11.999-15.579m-11.782 15.752 12.351-15.307m-12.135 15.487 12.691-15.03m-12.475 15.217 13.017-14.749m-12.803 14.941 13.331-14.464m-13.118 14.662 13.633-14.174m-13.42 14.377 13.921-13.879m-13.695 14.089 14.168-13.585m-13.943 13.806 14.402-13.301m-14.179 13.534 14.626-13.028m-14.405 13.272 14.84-12.766m-14.621 13.021 15.045-12.516m-14.827 12.781 15.24-12.276m-15.023 12.552 15.425-12.047m-15.209 12.333 15.601-11.83m-15.385 12.125 15.767-11.623m-15.552 11.928 15.923-11.427m-15.708 11.742 16.07-11.243m-15.854 11.567 16.206-11.069m-15.991 11.402 16.334-10.907m-16.117 11.248 16.451-10.755m-16.234 11.105 16.559-10.615m-16.34 10.973 16.658-10.486m-16.437 10.851 16.746-10.367m-16.523 10.741 16.825-10.26m-16.6 10.641 16.894-10.164m-16.667 10.552 16.954-10.078m-16.723 10.473 17.004-10.004m-16.77 10.406 17.044-9.9412m-16.807 10.349 17.074-9.889m-16.834 10.303 17.095-9.848m-16.851 10.268 17.106-9.8179m-16.858 10.244 17.108-9.7989m-16.855 10.23 17.1-9.791m-16.842 10.227 17.082-9.794m-16.819 10.235 17.054-9.8081m-16.783 10.268 17.011-9.8605m-16.713 10.397 16.922-10.069m-16.608 10.608 16.812-10.289m-16.482 10.831 16.682-10.52m-16.336 11.064 16.531-10.763m-16.169 11.308 16.361-11.016m-15.982 11.562 16.17-11.28m-15.774 11.826 15.959-11.555m-15.545 12.102 15.727-11.842m-15.296 12.388 15.476-12.14m-15.027 12.684 15.204-12.448m-14.737 12.991 14.912-12.768m-14.427 13.309 14.599-13.099m-14.096 13.637 14.267-13.441m-13.744 13.976 13.914-13.794m-13.372 14.325 13.541-14.158m-12.979 14.685 13.148-14.533m-12.566 15.055 12.734-14.919m-12.133 15.436 12.3-15.316m-11.642 15.838 11.774-15.747m-11.077 16.251 11.192-16.171m-10.474 16.648 10.59-16.572m-9.8532 17.022 9.9692-16.95m-9.2135 17.373 9.3293-17.305m-8.5553 17.7 8.6703-17.637m-7.8786 18.003 7.9922-17.946m-7.1834 18.283 7.295-18.232m-6.4697 18.54 6.5786-18.494m-5.7374 18.772 5.8432-18.734m-4.9866 18.982 5.0887-18.951m-4.2173 19.167 4.315-19.145m-3.4294 19.33 3.5223-19.315m-2.6231 19.468 2.7104-19.463m-1.8336 19.557 1.9492-19.533m-1.0976 19.59 1.2408-19.567m-0.40429 19.601 0.5639-19.59m0.25722 19.602-0.0814-19.601m0.88689 19.591-0.69514-19.601m1.4847 19.57-1.2773-19.589m2.0507 19.538-1.828-19.566m2.5848 19.496-2.347-19.532m3.0871 19.443-2.8346-19.486m3.5575 19.379-3.2905-19.428m3.9961 19.305-3.7149-19.359m4.4028 19.22-4.1078-19.279m4.7777 19.124-4.4691-19.187m5.1207 19.017-4.7988-19.084m5.4302 18.907-5.0935-18.982m5.7101 18.808-5.3632-18.901m5.971 18.722-5.6192-18.822m6.2182 18.639-5.8615-18.747m6.4517 18.559-6.09-18.676m6.6716 18.484-6.3048-18.607m6.8778 18.411-6.5058-18.542m7.0703 18.343-6.6931-18.48m7.2492 18.278-6.8666-18.421m7.4144 18.216-7.0264-18.365m7.5659 18.158-7.1725-18.313m7.7038 18.104-7.3048-18.264m7.8281 18.053-7.4233-18.218m7.9386 18.006-7.5282-18.175m8.0355 17.963-7.6192-18.136m8.1187 17.923-7.6965-18.1m8.1883 17.887-7.7601-18.067m8.244 17.855-7.8096-18.04m8.2884 17.832-7.85-18.023m8.3268 17.816-7.8871-18.009m8.3619 17.801-7.9208-17.995m8.3936 17.787-7.9512-17.983m8.422 17.775-7.9782-17.972m8.447 17.764-8.0018-17.963m8.4687 17.755-8.022-17.954m8.4871 17.747-8.0389-17.948m8.5021 17.74-8.0524-17.942m8.5139 17.735-8.0626-17.938m8.5222 17.731-8.0694-17.935m8.5273 17.729-8.0728-17.934m8.529 17.728-8.0728-17.933m8.5273 17.729-8.0695-17.935m8.5224 17.731-8.0628-17.937m8.5141 17.734-8.0527-17.941m8.5024 17.739-8.0393-17.946m8.4875 17.745-8.0225-17.953m8.4692 17.753-8.0023-17.96m8.4476 17.762-7.9788-17.969m8.4226 17.772-7.9519-17.98m8.3943 17.784-7.9216-17.992m8.3626 17.797-7.888-18.005m8.3277 17.812-7.851-18.019m8.2894 17.828-7.8106-18.035m8.2477 17.846-7.7669-18.052m8.2028 17.865-7.7198-18.071m8.1544 17.885-7.6693-18.091m8.1028 17.907-7.6154-18.112m8.0478 17.93-7.5582-18.134m7.9895 17.955-7.4976-18.158m7.9279 17.981-7.4337-18.183m7.8629 18.009-7.3664-18.21m7.7946 18.037-7.2957-18.238m7.7229 18.068-7.2216-18.267m7.6479 18.1-7.1442-18.298m7.5696 18.133-7.0634-18.329m7.488 18.167-6.9792-18.363m7.403 18.203-6.8917-18.397m7.3147 18.241-6.8008-18.433m7.223 18.28-6.7066-18.47m7.128 18.32-6.6089-18.509m7.0297 18.362-6.5079-18.548m6.9303 18.403-6.4082-18.586m6.8312 18.442-6.3078-18.622m6.7314 18.481-6.2067-18.658m6.6308 18.519-6.1048-18.693m6.5294 18.557-6.0021-18.728m6.4271 18.594-5.8986-18.762m6.3241 18.63-5.7943-18.795m6.2202 18.666-5.6892-18.828m6.1156 18.701-5.5833-18.86m6.0101 18.735-5.4766-18.892m5.9039 18.769-5.3692-18.923m5.7968 18.802-5.2609-18.953m5.6889 18.835-5.1519-18.982m5.5802 18.867-5.0421-19.011m5.4707 18.899-4.9314-19.04m5.3604 18.93-4.82-19.068m5.2493 18.96-4.7078-19.095m5.1374 18.99-4.5948-19.121m5.0247 19.019-4.481-19.147m4.9111 19.047-4.3665-19.172m4.7968 19.075-4.2511-19.197m4.6816 19.102-4.1349-19.221m4.5657 19.129-4.018-19.244m4.4489 19.155-3.9002-19.267m4.3314 19.18-3.7817-19.289m4.213 19.205-3.6624-19.31m4.0938 19.229-3.5423-19.331m3.9738 19.253-3.4214-19.351m3.853 19.276-3.2997-19.371m3.7314 19.298-3.1772-19.39m3.609 19.32-3.0539-19.408m3.4858 19.341-2.9298-19.426m3.3617 19.362-2.805-19.443m3.2369 19.382-2.6793-19.46m3.1113 19.401-2.5528-19.475m2.9848 19.42-2.4256-19.491m2.8576 19.438-2.2976-19.505m2.7295 19.455-2.1688-19.519m2.6006 19.472-2.0391-19.532m2.471 19.489-1.9087-19.545m2.3405 19.504-1.7775-19.557m2.2092 19.519-1.6456-19.569m2.0771 19.534-1.5128-19.58m1.9442 19.548-1.3792-19.59m1.8104 19.561-1.2448-19.599m1.6759 19.574-1.1097-19.608m1.5406 19.586-0.97375-19.617m1.4045 19.597-0.83702-19.624m1.2675 19.608-0.69949-19.631m1.1298 19.618-0.56117-19.638m0.99122 19.628-0.42206-19.644m0.85184 19.637-0.28215-19.649m0.71167 19.646-0.14147-19.653m0.57071 19.653v-19.657" fill="none" stroke="#000" stroke-opacity=".20729" stroke-width=".26458px"/>
</svg>
